<mxfile host="app.diagrams.net" modified="2024-07-17T23:36:40.823Z" agent="Mozilla/5.0 (Windows NT 10.0; Win64; x64) AppleWebKit/537.36 (KHTML, like Gecko) Chrome/126.0.0.0 Safari/537.36" etag="PCXctB6tXKQZ_XCXWRGx" version="24.7.1" type="github">
  <diagram name="Page-1" id="VjkzVlEo3QvM0czJA58e">
    <mxGraphModel dx="1720" dy="743" grid="1" gridSize="10" guides="1" tooltips="1" connect="1" arrows="1" fold="1" page="1" pageScale="1" pageWidth="850" pageHeight="1100" math="0" shadow="0">
      <root>
        <mxCell id="0" />
        <mxCell id="1" parent="0" />
        <mxCell id="TVJf72NeX_mqUF37j2xX-37" value="&lt;p style=&quot;margin:0px;margin-top:6px;text-align:center;&quot;&gt;&lt;b&gt;Root&lt;/b&gt;&lt;/p&gt;&lt;hr size=&quot;1&quot; style=&quot;border-style:solid;&quot;&gt;&lt;p style=&quot;margin:0px;margin-left:8px;&quot;&gt;+ Primary: String&lt;br&gt;+ Secondary: String&lt;/p&gt;" style="align=left;overflow=fill;html=1;dropTarget=0;whiteSpace=wrap;" vertex="1" parent="1">
          <mxGeometry x="20" y="40" width="180" height="90" as="geometry" />
        </mxCell>
        <mxCell id="TVJf72NeX_mqUF37j2xX-38" value="" style="shape=component;jettyWidth=8;jettyHeight=4;" vertex="1" parent="TVJf72NeX_mqUF37j2xX-37">
          <mxGeometry x="1" width="20" height="20" relative="1" as="geometry">
            <mxPoint x="-24" y="4" as="offset" />
          </mxGeometry>
        </mxCell>
        <mxCell id="TVJf72NeX_mqUF37j2xX-48" style="edgeStyle=orthogonalEdgeStyle;rounded=0;orthogonalLoop=1;jettySize=auto;html=1;exitX=0;exitY=0.25;exitDx=0;exitDy=0;entryX=1;entryY=0.5;entryDx=0;entryDy=0;" edge="1" parent="1" source="TVJf72NeX_mqUF37j2xX-39" target="TVJf72NeX_mqUF37j2xX-37">
          <mxGeometry relative="1" as="geometry" />
        </mxCell>
        <mxCell id="TVJf72NeX_mqUF37j2xX-57" style="edgeStyle=orthogonalEdgeStyle;rounded=0;orthogonalLoop=1;jettySize=auto;html=1;exitX=1;exitY=0.25;exitDx=0;exitDy=0;entryX=0;entryY=0.5;entryDx=0;entryDy=0;" edge="1" parent="1" source="TVJf72NeX_mqUF37j2xX-39" target="TVJf72NeX_mqUF37j2xX-51">
          <mxGeometry relative="1" as="geometry" />
        </mxCell>
        <mxCell id="TVJf72NeX_mqUF37j2xX-61" style="edgeStyle=orthogonalEdgeStyle;rounded=0;orthogonalLoop=1;jettySize=auto;html=1;exitX=0;exitY=0.25;exitDx=0;exitDy=0;entryX=1;entryY=0.5;entryDx=0;entryDy=0;" edge="1" parent="1" source="TVJf72NeX_mqUF37j2xX-39" target="TVJf72NeX_mqUF37j2xX-43">
          <mxGeometry relative="1" as="geometry" />
        </mxCell>
        <mxCell id="TVJf72NeX_mqUF37j2xX-62" style="edgeStyle=orthogonalEdgeStyle;rounded=0;orthogonalLoop=1;jettySize=auto;html=1;exitX=0;exitY=0.25;exitDx=0;exitDy=0;entryX=1;entryY=0.5;entryDx=0;entryDy=0;" edge="1" parent="1" source="TVJf72NeX_mqUF37j2xX-39" target="TVJf72NeX_mqUF37j2xX-45">
          <mxGeometry relative="1" as="geometry" />
        </mxCell>
        <mxCell id="TVJf72NeX_mqUF37j2xX-63" style="edgeStyle=orthogonalEdgeStyle;rounded=0;orthogonalLoop=1;jettySize=auto;html=1;exitX=1;exitY=0.25;exitDx=0;exitDy=0;entryX=0;entryY=0.5;entryDx=0;entryDy=0;" edge="1" parent="1" source="TVJf72NeX_mqUF37j2xX-39" target="TVJf72NeX_mqUF37j2xX-52">
          <mxGeometry relative="1" as="geometry" />
        </mxCell>
        <mxCell id="TVJf72NeX_mqUF37j2xX-64" style="edgeStyle=orthogonalEdgeStyle;rounded=0;orthogonalLoop=1;jettySize=auto;html=1;exitX=1;exitY=0.25;exitDx=0;exitDy=0;entryX=0;entryY=0.5;entryDx=0;entryDy=0;" edge="1" parent="1" source="TVJf72NeX_mqUF37j2xX-39" target="TVJf72NeX_mqUF37j2xX-53">
          <mxGeometry relative="1" as="geometry" />
        </mxCell>
        <mxCell id="TVJf72NeX_mqUF37j2xX-65" style="edgeStyle=orthogonalEdgeStyle;rounded=0;orthogonalLoop=1;jettySize=auto;html=1;exitX=1;exitY=0.25;exitDx=0;exitDy=0;entryX=0;entryY=0.5;entryDx=0;entryDy=0;" edge="1" parent="1" source="TVJf72NeX_mqUF37j2xX-39" target="TVJf72NeX_mqUF37j2xX-54">
          <mxGeometry relative="1" as="geometry" />
        </mxCell>
        <mxCell id="TVJf72NeX_mqUF37j2xX-66" style="edgeStyle=orthogonalEdgeStyle;rounded=0;orthogonalLoop=1;jettySize=auto;html=1;exitX=1;exitY=0.25;exitDx=0;exitDy=0;entryX=0;entryY=0.5;entryDx=0;entryDy=0;" edge="1" parent="1" source="TVJf72NeX_mqUF37j2xX-39" target="TVJf72NeX_mqUF37j2xX-55">
          <mxGeometry relative="1" as="geometry" />
        </mxCell>
        <mxCell id="TVJf72NeX_mqUF37j2xX-67" style="edgeStyle=orthogonalEdgeStyle;rounded=0;orthogonalLoop=1;jettySize=auto;html=1;exitX=1;exitY=0.25;exitDx=0;exitDy=0;entryX=0;entryY=0.5;entryDx=0;entryDy=0;" edge="1" parent="1" source="TVJf72NeX_mqUF37j2xX-39" target="TVJf72NeX_mqUF37j2xX-56">
          <mxGeometry relative="1" as="geometry" />
        </mxCell>
        <mxCell id="TVJf72NeX_mqUF37j2xX-39" value="Plant" style="swimlane;fontStyle=1;align=center;verticalAlign=top;childLayout=stackLayout;horizontal=1;startSize=26;horizontalStack=0;resizeParent=1;resizeParentMax=0;resizeLast=0;collapsible=1;marginBottom=0;whiteSpace=wrap;html=1;" vertex="1" parent="1">
          <mxGeometry x="320" width="160" height="86" as="geometry" />
        </mxCell>
        <mxCell id="TVJf72NeX_mqUF37j2xX-40" value="+ field: type" style="text;strokeColor=none;fillColor=none;align=left;verticalAlign=top;spacingLeft=4;spacingRight=4;overflow=hidden;rotatable=0;points=[[0,0.5],[1,0.5]];portConstraint=eastwest;whiteSpace=wrap;html=1;" vertex="1" parent="TVJf72NeX_mqUF37j2xX-39">
          <mxGeometry y="26" width="160" height="26" as="geometry" />
        </mxCell>
        <mxCell id="TVJf72NeX_mqUF37j2xX-41" value="" style="line;strokeWidth=1;fillColor=none;align=left;verticalAlign=middle;spacingTop=-1;spacingLeft=3;spacingRight=3;rotatable=0;labelPosition=right;points=[];portConstraint=eastwest;strokeColor=inherit;" vertex="1" parent="TVJf72NeX_mqUF37j2xX-39">
          <mxGeometry y="52" width="160" height="8" as="geometry" />
        </mxCell>
        <mxCell id="TVJf72NeX_mqUF37j2xX-42" value="+ method(type): type" style="text;strokeColor=none;fillColor=none;align=left;verticalAlign=top;spacingLeft=4;spacingRight=4;overflow=hidden;rotatable=0;points=[[0,0.5],[1,0.5]];portConstraint=eastwest;whiteSpace=wrap;html=1;" vertex="1" parent="TVJf72NeX_mqUF37j2xX-39">
          <mxGeometry y="60" width="160" height="26" as="geometry" />
        </mxCell>
        <mxCell id="TVJf72NeX_mqUF37j2xX-43" value="&lt;p style=&quot;margin:0px;margin-top:6px;text-align:center;&quot;&gt;&lt;b&gt;Stem&lt;/b&gt;&lt;/p&gt;&lt;hr size=&quot;1&quot; style=&quot;border-style:solid;&quot;&gt;&lt;p style=&quot;margin:0px;margin-left:8px;&quot;&gt;+ Node: String&lt;br&gt;+ Internode: String&lt;/p&gt;" style="align=left;overflow=fill;html=1;dropTarget=0;whiteSpace=wrap;" vertex="1" parent="1">
          <mxGeometry x="20" y="160" width="180" height="90" as="geometry" />
        </mxCell>
        <mxCell id="TVJf72NeX_mqUF37j2xX-44" value="" style="shape=component;jettyWidth=8;jettyHeight=4;" vertex="1" parent="TVJf72NeX_mqUF37j2xX-43">
          <mxGeometry x="1" width="20" height="20" relative="1" as="geometry">
            <mxPoint x="-24" y="4" as="offset" />
          </mxGeometry>
        </mxCell>
        <mxCell id="TVJf72NeX_mqUF37j2xX-45" value="&lt;p style=&quot;margin:0px;margin-top:6px;text-align:center;&quot;&gt;&lt;b&gt;Leaf&lt;/b&gt;&lt;/p&gt;&lt;hr size=&quot;1&quot; style=&quot;border-style:solid;&quot;&gt;&lt;p style=&quot;margin:0px;margin-left:8px;&quot;&gt;+ Blade: String&lt;br&gt;+ Petiole: String&lt;/p&gt;" style="align=left;overflow=fill;html=1;dropTarget=0;whiteSpace=wrap;" vertex="1" parent="1">
          <mxGeometry x="20" y="280" width="180" height="90" as="geometry" />
        </mxCell>
        <mxCell id="TVJf72NeX_mqUF37j2xX-46" value="" style="shape=component;jettyWidth=8;jettyHeight=4;" vertex="1" parent="TVJf72NeX_mqUF37j2xX-45">
          <mxGeometry x="1" width="20" height="20" relative="1" as="geometry">
            <mxPoint x="-24" y="4" as="offset" />
          </mxGeometry>
        </mxCell>
        <mxCell id="TVJf72NeX_mqUF37j2xX-51" value="&lt;p style=&quot;margin:0px;margin-top:4px;text-align:center;&quot;&gt;&lt;b&gt;Tree&lt;/b&gt;&lt;/p&gt;" style="verticalAlign=top;align=left;overflow=fill;html=1;whiteSpace=wrap;" vertex="1" parent="1">
          <mxGeometry x="630" y="40" width="140" height="30" as="geometry" />
        </mxCell>
        <mxCell id="TVJf72NeX_mqUF37j2xX-52" value="&lt;p style=&quot;margin:0px;margin-top:4px;text-align:center;&quot;&gt;&lt;b&gt;Shrub&lt;/b&gt;&lt;/p&gt;" style="verticalAlign=top;align=left;overflow=fill;html=1;whiteSpace=wrap;" vertex="1" parent="1">
          <mxGeometry x="630" y="120" width="140" height="30" as="geometry" />
        </mxCell>
        <mxCell id="TVJf72NeX_mqUF37j2xX-53" value="&lt;p style=&quot;margin:0px;margin-top:4px;text-align:center;&quot;&gt;&lt;b&gt;Herb&lt;/b&gt;&lt;/p&gt;" style="verticalAlign=top;align=left;overflow=fill;html=1;whiteSpace=wrap;" vertex="1" parent="1">
          <mxGeometry x="630" y="200" width="140" height="30" as="geometry" />
        </mxCell>
        <mxCell id="TVJf72NeX_mqUF37j2xX-54" value="&lt;p style=&quot;margin:0px;margin-top:4px;text-align:center;&quot;&gt;&lt;b&gt;Grass&lt;/b&gt;&lt;/p&gt;" style="verticalAlign=top;align=left;overflow=fill;html=1;whiteSpace=wrap;" vertex="1" parent="1">
          <mxGeometry x="630" y="280" width="140" height="30" as="geometry" />
        </mxCell>
        <mxCell id="TVJf72NeX_mqUF37j2xX-55" value="&lt;p style=&quot;margin:0px;margin-top:4px;text-align:center;&quot;&gt;&lt;b&gt;Fern&lt;/b&gt;&lt;/p&gt;" style="verticalAlign=top;align=left;overflow=fill;html=1;whiteSpace=wrap;" vertex="1" parent="1">
          <mxGeometry x="630" y="360" width="140" height="30" as="geometry" />
        </mxCell>
        <mxCell id="TVJf72NeX_mqUF37j2xX-56" value="&lt;p style=&quot;margin:0px;margin-top:4px;text-align:center;&quot;&gt;&lt;b&gt;Moss&lt;/b&gt;&lt;/p&gt;" style="verticalAlign=top;align=left;overflow=fill;html=1;whiteSpace=wrap;" vertex="1" parent="1">
          <mxGeometry x="630" y="440" width="140" height="30" as="geometry" />
        </mxCell>
      </root>
    </mxGraphModel>
  </diagram>
</mxfile>
